<?xml version="1.0" encoding="UTF-8"?>
<svg width="830px" height="380px" viewBox="0 0 830 380" version="1.1" xmlns="http://www.w3.org/2000/svg" xmlns:xlink="http://www.w3.org/1999/xlink">
    <title>Rectangle</title>
    <g id="Our-Approach" stroke="none" stroke-width="1" fill="none" fill-rule="evenodd">
        <g id="OUR-APPROACH---Desktop" transform="translate(-470.000000, -2483.000000)">
            <rect fill="#FFFFFF" x="0" y="0" width="1440" height="7965"></rect>
            <rect id="Rectangle" fill="#F3F9F9" x="470" y="2483" width="830" height="380"></rect>
            <g id="Group-10" transform="translate(503.000000, 2515.000000)">
                <rect id="Rectangle-Copy-11" fill="#D0E5E2" transform="translate(60.000000, 32.000000) rotate(-270.000000) translate(-60.000000, -32.000000) " x="46" y="-10" width="28" height="84"></rect>
                <g id="noun_Human_1683012-Copy-6" transform="translate(358.000000, 92.000000)" fill="#38827C" fill-rule="nonzero">
                    <g id="Group">
                        <ellipse id="Oval" cx="23.2267442" cy="13.6243277" rx="12.9705426" ry="12.9498561"></ellipse>
                        <path d="M46.1954134,70.1450537 L43.4932171,43.4359756 C42.6825581,36.2865759 36.7377261,30.7559082 29.4417959,30.7559082 L17.1468023,30.7559082 C9.98598191,30.7559082 3.90604005,36.1516815 3.09538114,43.4359756 L0.258074935,70.1450537 C-0.0121447028,72.3033631 1.20384367,74.1918838 3.23049096,75.0012498 L9.85087209,77.6991364 C10.661531,77.9689251 11.2019703,78.7782911 11.3370801,79.7225515 L14.8499354,124.642365 C14.9850452,127.070463 17.1468023,128.958983 19.5787791,128.958983 L27.0098191,128.958983 C29.4417959,128.958983 31.4684432,127.070463 31.7386628,124.642365 L35.1164083,79.5876571 C35.2515181,78.6433968 35.7919574,77.9689251 36.6026163,77.5642421 L43.2229974,74.8663554 C45.2496447,74.1918838 46.4656331,72.1684687 46.1954134,70.1450537 Z" id="Path"></path>
                    </g>
                </g>
                <circle id="Oval" fill="#F2CF76" cx="452" cy="32" r="4"></circle>
                <circle id="Oval-Copy-187" fill="#F2CF76" cx="452" cy="4" r="4"></circle>
                <circle id="Oval-Copy-226" fill="#F2CF76" cx="536" cy="4" r="4"></circle>
                <circle id="Oval-Copy-122" fill="#38827C" cx="88" cy="32" r="4"></circle>
                <circle id="Oval-Copy-179" fill="#38827C" cx="32" cy="32" r="4"></circle>
                <circle id="Oval-Copy-197" fill="#9DA4BE" cx="4" cy="32" r="4"></circle>
                <circle id="Oval-Copy-120" fill="#F2CF76" cx="424" cy="32" r="4"></circle>
                <circle id="Oval-Copy-185" fill="#F2CF76" cx="396" cy="32" r="4"></circle>
                <rect id="Rectangle-Copy" fill="#D0E5E2" x="74" y="102" width="112" height="140"></rect>
                <circle id="Oval-Copy-144" fill="#38827C" cx="60" cy="32" r="4"></circle>
                <circle id="Oval-Copy-101" fill="#FF9E8F" cx="452" cy="172" r="4"></circle>
                <circle id="Oval-Copy-61" fill="#38827C" cx="88" cy="116" r="4"></circle>
                <circle id="Oval-Copy-168" fill="#9FCDC6" cx="60" cy="116" r="4"></circle>
                <circle id="Oval-Copy-214" fill="#9FCDC6" cx="32" cy="116" r="4"></circle>
                <rect id="Rectangle-Copy-5" fill="#D0E5E2" x="438" y="214" width="84" height="56"></rect>
                <rect id="Rectangle-Copy-7" fill="#D0E5E2" x="662" y="270" width="28" height="56"></rect>
                <circle id="Oval-Copy-41" fill="#F2CF76" cx="452" cy="88" r="4"></circle>
                <circle id="Oval-Copy-102" fill="#38827C" cx="452" cy="228" r="4"></circle>
                <circle id="Oval-Copy-62" fill="#38827C" cx="88" cy="172" r="4"></circle>
                <circle id="Oval-Copy-180" fill="#9FCDC6" cx="60" cy="172" r="4"></circle>
                <circle id="Oval-Copy-215" fill="#9FCDC6" cx="32" cy="172" r="4"></circle>
                <circle id="Oval-Copy-35" fill="#F2CF76" cx="452" cy="60" r="4"></circle>
                <circle id="Oval-Copy-145" fill="#9DA4BE" cx="88" cy="60" r="4"></circle>
                <circle id="Oval-Copy-181" fill="#9DA4BE" cx="32" cy="60" r="4"></circle>
                <circle id="Oval-Copy-198" fill="#9DA4BE" cx="4" cy="60" r="4"></circle>
                <circle id="Oval-Copy-165" fill="#9DA4BE" cx="88" cy="4" r="4"></circle>
                <circle id="Oval-Copy-182" fill="#9DA4BE" cx="32" cy="4" r="4"></circle>
                <circle id="Oval-Copy-199" fill="#9DA4BE" cx="4" cy="4" r="4"></circle>
                <circle id="Oval-Copy-121" fill="#F2CF76" cx="424" cy="60" r="4"></circle>
                <circle id="Oval-Copy-186" fill="#F2CF76" cx="396" cy="60" r="4"></circle>
                <circle id="Oval-Copy-146" fill="#9DA4BE" cx="60" cy="60" r="4"></circle>
                <circle id="Oval-Copy-166" fill="#9DA4BE" cx="60" cy="4" r="4"></circle>
                <circle id="Oval-Copy-104" fill="#FF9E8F" cx="452" cy="200" r="4"></circle>
                <circle id="Oval-Copy-63" fill="#38827C" cx="88" cy="144" r="4"></circle>
                <circle id="Oval-Copy-183" fill="#9FCDC6" cx="60" cy="144" r="4"></circle>
                <circle id="Oval-Copy-216" fill="#9FCDC6" cx="32" cy="144" r="4"></circle>
                <circle id="Oval-Copy-42" fill="#F2CF76" cx="452" cy="116" r="4"></circle>
                <circle id="Oval-Copy-105" fill="#38827C" cx="452" cy="256" r="4"></circle>
                <circle id="Oval-Copy-64" fill="#38827C" cx="88" cy="200" r="4"></circle>
                <circle id="Oval-Copy-218" fill="#38827C" cx="88" cy="228" r="4"></circle>
                <circle id="Oval-Copy-184" fill="#9FCDC6" cx="60" cy="200" r="4"></circle>
                <circle id="Oval-Copy-217" fill="#9FCDC6" cx="32" cy="200" r="4"></circle>
                <circle id="Oval-Copy-30" fill="#F2CF76" cx="508" cy="32" r="4"></circle>
                <circle id="Oval-Copy-188" fill="#F2CF76" cx="508" cy="4" r="4"></circle>
                <circle id="Oval-Copy-227" fill="#F2CF76" cx="592" cy="4" r="4"></circle>
                <circle id="Oval-Copy-147" fill="#9DA4BE" cx="144" cy="32" r="4"></circle>
                <circle id="Oval-Copy-206" fill="#9DA4BE" cx="172" cy="32" r="4"></circle>
                <circle id="Oval-Copy-106" fill="#FF9E8F" cx="508" cy="172" r="4"></circle>
                <circle id="Oval-Copy-65" fill="#38827C" cx="144" cy="116" r="4"></circle>
                <circle id="Oval-Copy-43" fill="#F2CF76" cx="508" cy="88" r="4"></circle>
                <circle id="Oval-Copy-108" fill="#38827C" cx="508" cy="228" r="4"></circle>
                <circle id="Oval-Copy-66" fill="#38827C" cx="144" cy="172" r="4"></circle>
                <circle id="Oval-Copy-123" fill="#9FCDC6" cx="172" cy="256" r="4"></circle>
                <circle id="Oval-Copy-36" fill="#F2CF76" cx="508" cy="60" r="4"></circle>
                <circle id="Oval-Copy-148" fill="#9DA4BE" cx="144" cy="60" r="4"></circle>
                <circle id="Oval-Copy-207" fill="#9DA4BE" cx="172" cy="60" r="4"></circle>
                <circle id="Oval-Copy-110" fill="#FF9E8F" cx="508" cy="200" r="4"></circle>
                <circle id="Oval-Copy-67" fill="#38827C" cx="144" cy="144" r="4"></circle>
                <circle id="Oval-Copy-124" fill="#38827C" cx="172" cy="228" r="4"></circle>
                <circle id="Oval-Copy-44" fill="#F2CF76" cx="508" cy="116" r="4"></circle>
                <circle id="Oval-Copy-111" fill="#38827C" cx="508" cy="256" r="4"></circle>
                <rect id="Rectangle" fill="#D0E5E2" x="522" y="18" width="140" height="56"></rect>
                <circle id="Oval-Copy-68" fill="#38827C" cx="144" cy="200" r="4"></circle>
                <circle id="Oval-Copy-125" fill="#9FCDC6" cx="172" cy="284" r="4"></circle>
                <circle id="Oval-Copy-200" fill="#9FCDC6" cx="144" cy="312" r="4"></circle>
                <circle id="Oval-Copy-33" fill="#38827C" cx="564" cy="32" r="4"></circle>
                <circle id="Oval-Copy-69" fill="#9FCDC6" cx="200" cy="116" r="4"></circle>
                <circle id="Oval-Copy-53" fill="#38827C" cx="620" cy="32" r="4"></circle>
                <circle id="Oval-Copy-70" fill="#9FCDC6" cx="256" cy="116" r="4"></circle>
                <circle id="Oval-Copy-45" fill="#F2CF76" cx="564" cy="88" r="4"></circle>
                <circle id="Oval-Copy-71" fill="#9FCDC6" cx="200" cy="172" r="4"></circle>
                <circle id="Oval-Copy-126" fill="#9FCDC6" cx="228" cy="256" r="4"></circle>
                <circle id="Oval-Copy-95" fill="#9FCDC6" cx="256" cy="60" r="4"></circle>
                <circle id="Oval-Copy-231" fill="#9FCDC6" cx="256" cy="32" r="4"></circle>
                <circle id="Oval-Copy-54" fill="#F2CF76" cx="620" cy="88" r="4"></circle>
                <circle id="Oval-Copy-169" fill="#F2CF76" cx="704" cy="88" r="4"></circle>
                <circle id="Oval-Copy-72" fill="#9FCDC6" cx="256" cy="172" r="4"></circle>
                <circle id="Oval-Copy-127" fill="#9FCDC6" cx="284" cy="256" r="4"></circle>
                <circle id="Oval-Copy-219" fill="#9FCDC6" cx="340" cy="256" r="4"></circle>
                <circle id="Oval-Copy-151" fill="#C0C0B2" cx="648" cy="256" r="4"></circle>
                <circle id="Oval-Copy-229" fill="#C0C0B2" cx="592" cy="256" r="4"></circle>
                <circle id="Oval-Copy-96" fill="#9FCDC6" cx="312" cy="60" r="4"></circle>
                <circle id="Oval-Copy-37" fill="#38827C" cx="564" cy="60" r="4"></circle>
                <circle id="Oval-Copy-73" fill="#9FCDC6" cx="200" cy="144" r="4"></circle>
                <circle id="Oval-Copy-128" fill="#9FCDC6" cx="228" cy="228" r="4"></circle>
                <circle id="Oval-Copy-55" fill="#38827C" cx="620" cy="60" r="4"></circle>
                <circle id="Oval-Copy-74" fill="#9FCDC6" cx="256" cy="144" r="4"></circle>
                <circle id="Oval-Copy-129" fill="#9FCDC6" cx="284" cy="228" r="4"></circle>
                <circle id="Oval-Copy-152" fill="#C0C0B2" cx="648" cy="228" r="4"></circle>
                <circle id="Oval-Copy-230" fill="#C0C0B2" cx="592" cy="228" r="4"></circle>
                <circle id="Oval-Copy-46" fill="#F2CF76" cx="564" cy="116" r="4"></circle>
                <circle id="Oval-Copy-93" fill="#F2CF76" cx="564" cy="144" r="4"></circle>
                <circle id="Oval-Copy-75" fill="#9FCDC6" cx="200" cy="200" r="4"></circle>
                <circle id="Oval-Copy-130" fill="#9FCDC6" cx="228" cy="284" r="4"></circle>
                <circle id="Oval-Copy-201" fill="#9FCDC6" cx="200" cy="312" r="4"></circle>
                <circle id="Oval-Copy-99" fill="#9FCDC6" cx="256" cy="88" r="4"></circle>
                <circle id="Oval-Copy-56" fill="#F2CF76" cx="620" cy="116" r="4"></circle>
                <circle id="Oval-Copy-171" fill="#F2CF76" cx="704" cy="116" r="4"></circle>
                <circle id="Oval-Copy-94" fill="#F2CF76" cx="620" cy="144" r="4"></circle>
                <circle id="Oval-Copy-172" fill="#F2CF76" cx="704" cy="144" r="4"></circle>
                <circle id="Oval-Copy-76" fill="#9FCDC6" cx="256" cy="200" r="4"></circle>
                <circle id="Oval-Copy-131" fill="#9FCDC6" cx="284" cy="284" r="4"></circle>
                <circle id="Oval-Copy-220" fill="#9FCDC6" cx="340" cy="284" r="4"></circle>
                <circle id="Oval-Copy-153" fill="#C0C0B2" cx="648" cy="284" r="4"></circle>
                <circle id="Oval-Copy-163" fill="#C0C0B2" cx="648" cy="312" r="4"></circle>
                <circle id="Oval-Copy-100" fill="#9FCDC6" cx="312" cy="88" r="4"></circle>
                <circle id="Oval-Copy-109" fill="#9FCDC6" cx="312" cy="116" r="4"></circle>
                <circle id="Oval-Copy-28" fill="#F2CF76" cx="480" cy="32" r="4"></circle>
                <circle id="Oval-Copy-189" fill="#F2CF76" cx="480" cy="4" r="4"></circle>
                <circle id="Oval-Copy-228" fill="#F2CF76" cx="564" cy="4" r="4"></circle>
                <circle id="Oval-Copy-149" fill="#9DA4BE" cx="116" cy="32" r="4"></circle>
                <circle id="Oval-Copy-112" fill="#FF9E8F" cx="480" cy="172" r="4"></circle>
                <circle id="Oval-Copy-77" fill="#38827C" cx="116" cy="116" r="4"></circle>
                <circle id="Oval-Copy-47" fill="#F2CF76" cx="480" cy="88" r="4"></circle>
                <circle id="Oval-Copy-113" fill="#38827C" cx="480" cy="228" r="4"></circle>
                <circle id="Oval-Copy-78" fill="#38827C" cx="116" cy="172" r="4"></circle>
                <circle id="Oval-Copy-132" fill="#9FCDC6" cx="144" cy="256" r="4"></circle>
                <circle id="Oval-Copy-212" fill="#9FCDC6" cx="117" cy="256" r="4"></circle>
                <circle id="Oval-Copy-38" fill="#F2CF76" cx="480" cy="60" r="4"></circle>
                <circle id="Oval-Copy-150" fill="#9DA4BE" cx="116" cy="60" r="4"></circle>
                <circle id="Oval-Copy-170" fill="#9DA4BE" cx="116" cy="4" r="4"></circle>
                <circle id="Oval-Copy-114" fill="#FF9E8F" cx="480" cy="200" r="4"></circle>
                <circle id="Oval-Copy-79" fill="#38827C" cx="116" cy="144" r="4"></circle>
                <circle id="Oval-Copy-133" fill="#38827C" cx="144" cy="228" r="4"></circle>
                <circle id="Oval-Copy-213" fill="#38827C" cx="117" cy="228" r="4"></circle>
                <circle id="Oval-Copy-48" fill="#F2CF76" cx="480" cy="116" r="4"></circle>
                <circle id="Oval-Copy-115" fill="#38827C" cx="480" cy="256" r="4"></circle>
                <circle id="Oval-Copy-80" fill="#38827C" cx="116" cy="200" r="4"></circle>
                <circle id="Oval-Copy-134" fill="#9FCDC6" cx="144" cy="284" r="4"></circle>
                <circle id="Oval-Copy-205" fill="#9FCDC6" cx="116" cy="284" r="4"></circle>
                <circle id="Oval-Copy-202" fill="#9FCDC6" cx="116" cy="312" r="4"></circle>
                <circle id="Oval-Copy-32" fill="#38827C" cx="536" cy="32" r="4"></circle>
                <circle id="Oval-Copy-116" fill="#FF9E8F" cx="536" cy="172" r="4"></circle>
                <circle id="Oval-Copy-81" fill="#38827C" cx="172" cy="116" r="4"></circle>
                <circle id="Oval-Copy-49" fill="#F2CF76" cx="536" cy="88" r="4"></circle>
                <circle id="Oval-Copy-117" fill="#FF9E8F" cx="536" cy="228" r="4"></circle>
                <circle id="Oval-Copy-82" fill="#38827C" cx="172" cy="172" r="4"></circle>
                <circle id="Oval-Copy-135" fill="#9FCDC6" cx="200" cy="256" r="4"></circle>
                <circle id="Oval-Copy-39" fill="#38827C" cx="536" cy="60" r="4"></circle>
                <circle id="Oval-Copy-118" fill="#FF9E8F" cx="536" cy="200" r="4"></circle>
                <circle id="Oval-Copy-83" fill="#38827C" cx="172" cy="144" r="4"></circle>
                <circle id="Oval-Copy-136" fill="#9FCDC6" cx="200" cy="228" r="4"></circle>
                <circle id="Oval-Copy-50" fill="#F2CF76" cx="536" cy="116" r="4"></circle>
                <circle id="Oval-Copy-119" fill="#FF9E8F" cx="536" cy="256" r="4"></circle>
                <circle id="Oval-Copy-84" fill="#38827C" cx="172" cy="200" r="4"></circle>
                <circle id="Oval-Copy-137" fill="#9FCDC6" cx="200" cy="284" r="4"></circle>
                <circle id="Oval-Copy-203" fill="#9FCDC6" cx="172" cy="312" r="4"></circle>
                <circle id="Oval-Copy-34" fill="#38827C" cx="592" cy="32" r="4"></circle>
                <circle id="Oval-Copy-85" fill="#9FCDC6" cx="228" cy="116" r="4"></circle>
                <circle id="Oval-Copy-57" fill="#38827C" cx="648" cy="32" r="4"></circle>
                <circle id="Oval-Copy-86" fill="#9FCDC6" cx="284" cy="116" r="4"></circle>
                <circle id="Oval-Copy-51" fill="#F2CF76" cx="592" cy="88" r="4"></circle>
                <circle id="Oval-Copy-173" fill="#F2CF76" cx="676" cy="88" r="4"></circle>
                <circle id="Oval-Copy-208" fill="#F2CF76" cx="676" cy="32" r="4"></circle>
                <circle id="Oval-Copy-210" fill="#F2CF76" cx="704" cy="32" r="4"></circle>
                <circle id="Oval-Copy-87" fill="#9FCDC6" cx="228" cy="172" r="4"></circle>
                <circle id="Oval-Copy-138" fill="#9FCDC6" cx="256" cy="256" r="4"></circle>
                <circle id="Oval-Copy-154" fill="#C0C0B2" cx="620" cy="256" r="4"></circle>
                <circle id="Oval-Copy-103" fill="#9FCDC6" cx="284" cy="60" r="4"></circle>
                <circle id="Oval-Copy-233" fill="#9FCDC6" cx="284" cy="32" r="4"></circle>
                <circle id="Oval-Copy-58" fill="#F2CF76" cx="648" cy="88" r="4"></circle>
                <circle id="Oval-Copy-174" fill="#F2CF76" cx="732" cy="88" r="4"></circle>
                <circle id="Oval-Copy-88" fill="#9FCDC6" cx="284" cy="172" r="4"></circle>
                <circle id="Oval-Copy-139" fill="#9FCDC6" cx="312" cy="256" r="4"></circle>
                <circle id="Oval-Copy-221" fill="#9FCDC6" cx="368" cy="256" r="4"></circle>
                <circle id="Oval-Copy-155" fill="#C0C0B2" cx="676" cy="256" r="4"></circle>
                <circle id="Oval-Copy-191" fill="#C0C0B2" cx="732" cy="256" r="4"></circle>
                <circle id="Oval-Copy-160" fill="#C0C0B2" cx="704" cy="256" r="4"></circle>
                <circle id="Oval-Copy-192" fill="#C0C0B2" cx="760" cy="256" r="4"></circle>
                <circle id="Oval-Copy-40" fill="#38827C" cx="592" cy="60" r="4"></circle>
                <circle id="Oval-Copy-89" fill="#9FCDC6" cx="228" cy="144" r="4"></circle>
                <circle id="Oval-Copy-140" fill="#9FCDC6" cx="256" cy="228" r="4"></circle>
                <circle id="Oval-Copy-156" fill="#C0C0B2" cx="620" cy="228" r="4"></circle>
                <circle id="Oval-Copy-59" fill="#38827C" cx="648" cy="60" r="4"></circle>
                <circle id="Oval-Copy-90" fill="#9FCDC6" cx="284" cy="144" r="4"></circle>
                <circle id="Oval-Copy-141" fill="#9FCDC6" cx="312" cy="228" r="4"></circle>
                <circle id="Oval-Copy-223" fill="#9FCDC6" cx="312" cy="200" r="4"></circle>
                <circle id="Oval-Copy-157" fill="#C0C0B2" cx="676" cy="228" r="4"></circle>
                <circle id="Oval-Copy-193" fill="#C0C0B2" cx="732" cy="228" r="4"></circle>
                <circle id="Oval-Copy-161" fill="#C0C0B2" cx="704" cy="228" r="4"></circle>
                <circle id="Oval-Copy-194" fill="#C0C0B2" cx="760" cy="228" r="4"></circle>
                <circle id="Oval-Copy-52" fill="#F2CF76" cx="592" cy="116" r="4"></circle>
                <circle id="Oval-Copy-175" fill="#F2CF76" cx="676" cy="116" r="4"></circle>
                <circle id="Oval-Copy-209" fill="#F2CF76" cx="676" cy="60" r="4"></circle>
                <circle id="Oval-Copy-211" fill="#F2CF76" cx="704" cy="60" r="4"></circle>
                <circle id="Oval-Copy-97" fill="#F2CF76" cx="592" cy="144" r="4"></circle>
                <circle id="Oval-Copy-176" fill="#F2CF76" cx="676" cy="144" r="4"></circle>
                <circle id="Oval-Copy-91" fill="#9FCDC6" cx="228" cy="200" r="4"></circle>
                <circle id="Oval-Copy-142" fill="#9FCDC6" cx="256" cy="284" r="4"></circle>
                <circle id="Oval-Copy-225" fill="#9FCDC6" cx="256" cy="312" r="4"></circle>
                <circle id="Oval-Copy-204" fill="#9FCDC6" cx="228" cy="312" r="4"></circle>
                <circle id="Oval-Copy-158" fill="#C0C0B2" cx="620" cy="284" r="4"></circle>
                <circle id="Oval-Copy-164" fill="#C0C0B2" cx="620" cy="312" r="4"></circle>
                <circle id="Oval-Copy-107" fill="#9FCDC6" cx="284" cy="88" r="4"></circle>
                <circle id="Oval-Copy-190" fill="#9FCDC6" cx="340" cy="88" r="4"></circle>
                <circle id="Oval-Copy-224" fill="#9FCDC6" cx="340" cy="60" r="4"></circle>
                <circle id="Oval-Copy-60" fill="#F2CF76" cx="648" cy="116" r="4"></circle>
                <circle id="Oval-Copy-177" fill="#F2CF76" cx="732" cy="116" r="4"></circle>
                <circle id="Oval-Copy-98" fill="#F2CF76" cx="648" cy="144" r="4"></circle>
                <circle id="Oval-Copy-178" fill="#F2CF76" cx="732" cy="144" r="4"></circle>
                <circle id="Oval-Copy-92" fill="#9FCDC6" cx="284" cy="200" r="4"></circle>
                <circle id="Oval-Copy-143" fill="#9FCDC6" cx="312" cy="284" r="4"></circle>
                <circle id="Oval-Copy-222" fill="#9FCDC6" cx="368" cy="284" r="4"></circle>
                <circle id="Oval-Copy-159" fill="#38827C" cx="676" cy="284" r="4"></circle>
                <circle id="Oval-Copy-195" fill="#C0C0B2" cx="732" cy="284" r="4"></circle>
                <circle id="Oval-Copy-167" fill="#38827C" cx="676" cy="312" r="4"></circle>
                <circle id="Oval-Copy-162" fill="#C0C0B2" cx="704" cy="284" r="4"></circle>
                <circle id="Oval-Copy-196" fill="#C0C0B2" cx="760" cy="284" r="4"></circle>
            </g>
        </g>
    </g>
</svg>