<?xml version="1.0" encoding="UTF-8"?>
<svg width="831px" height="381px" viewBox="0 0 831 381" version="1.1" xmlns="http://www.w3.org/2000/svg" xmlns:xlink="http://www.w3.org/1999/xlink">
    <title>Group 11</title>
    <g id="Our-Approach" stroke="none" stroke-width="1" fill="none" fill-rule="evenodd">
        <g id="OUR-APPROACH---Desktop" transform="translate(-469.000000, -2953.000000)">
            <rect fill="#FFFFFF" x="0" y="0" width="1440" height="7965"></rect>
            <rect id="Rectangle-Copy-6" fill="#F3F9F9" x="469" y="2953" width="830" height="380"></rect>
            <g id="Group-13" transform="translate(802.000000, 3065.000000)">
                <circle id="Oval-Copy-251" fill="#CFE5E2" cx="24" cy="24" r="24"></circle>
                <circle id="Oval-Copy-251" fill="#38827C" cx="24" cy="24" r="4"></circle>
            </g>
            <g id="Group-16" transform="translate(826.000000, 3099.000000)">
                <circle id="Oval-Copy-272" fill="#CFE5E2" cx="24" cy="24" r="24"></circle>
                <circle id="Oval-Copy-262" fill="#38827C" cx="24" cy="24" r="4"></circle>
            </g>
            <g id="Group-18" transform="translate(940.000000, 3145.000000)">
                <circle id="Oval-Copy-274" fill="#CFE5E2" cx="24" cy="24" r="24"></circle>
                <circle id="Oval-Copy-243" fill="#38827C" cx="24" cy="24" r="4"></circle>
            </g>
            <g id="Group-19" transform="translate(1094.000000, 3124.000000)">
                <circle id="Oval-Copy-276" fill="#CFE5E2" cx="24" cy="24" r="24"></circle>
                <circle id="Oval-Copy-236" fill="#38827C" cx="24" cy="24" r="4"></circle>
            </g>
            <g id="Group-17" transform="translate(916.000000, 3174.000000)">
                <circle id="Oval-Copy-275" fill="#CFE5E2" cx="24" cy="24" r="24"></circle>
                <circle id="Oval-Copy-232" fill="#38827C" cx="24" cy="24" r="4"></circle>
            </g>
            <g id="Group-14" transform="translate(756.000000, 3129.000000)">
                <circle id="Oval-Copy-273" fill="#CFE5E2" cx="24" cy="24" r="24"></circle>
                <circle id="Oval-Copy-256" fill="#38827C" cx="24" cy="24" r="4"></circle>
            </g>
            <g id="Group-12" transform="translate(569.000000, 3002.000000)" fill="#FF9E8F">
                <circle id="Oval-Copy-110" cx="429" cy="201" r="4"></circle>
                <circle id="Oval-Copy-248" cx="265" cy="156" r="4"></circle>
                <circle id="Oval-Copy-277" cx="59" cy="72" r="4"></circle>
                <circle id="Oval-Copy-283" cx="16" cy="4" r="4"></circle>
                <circle id="Oval-Copy-240" cx="329" cy="201" r="4"></circle>
                <circle id="Oval-Copy-285" cx="234" cy="265" r="4"></circle>
                <circle id="Oval-Copy-278" cx="211" cy="97" r="4"></circle>
                <circle id="Oval-Copy-249" cx="162" cy="151" r="4"></circle>
                <circle id="Oval-Copy-250" cx="361" cy="130" r="4"></circle>
                <circle id="Oval-Copy-241" cx="429" cy="146" r="4"></circle>
                <circle id="Oval-Copy-234" cx="399" cy="235" r="4"></circle>
                <circle id="Oval-Copy-252" cx="203" cy="193" r="4"></circle>
                <circle id="Oval-Copy-242" cx="299" cy="224" r="4"></circle>
                <circle id="Oval-Copy-286" cx="204" cy="288" r="4"></circle>
                <circle id="Oval-Copy-279" cx="79" cy="147" r="4"></circle>
                <circle id="Oval-Copy-253" cx="59" cy="182" r="4"></circle>
                <circle id="Oval-Copy-237" cx="484" cy="162" r="4"></circle>
                <circle id="Oval-Copy-288" cx="628" cy="74" r="4"></circle>
                <circle id="Oval-Copy-254" cx="329" cy="141" r="4"></circle>
                <circle id="Oval-Copy-267" cx="508" cy="229" r="4"></circle>
                <circle id="Oval-Copy-255" cx="191" cy="114" r="4"></circle>
                <circle id="Oval-Copy-269" cx="265" cy="193" r="4"></circle>
                <circle id="Oval-Copy-280" cx="59" cy="109" r="4"></circle>
                <circle id="Oval-Copy-284" cx="16" cy="58" r="4"></circle>
                <circle id="Oval-Copy-244" cx="303" cy="175" r="4"></circle>
                <circle id="Oval-Copy-287" cx="208" cy="239" r="4"></circle>
                <circle id="Oval-Copy-281" cx="50" cy="127" r="4"></circle>
                <circle id="Oval-Copy-257" cx="76" cy="124" r="4"></circle>
                <circle id="Oval-Copy-268" cx="4" cy="117" r="4"></circle>
                <circle id="Oval-Copy-238" cx="488" cy="113" r="4"></circle>
                <circle id="Oval-Copy-289" cx="628" cy="15" r="4"></circle>
                <circle id="Oval-Copy-266" cx="620" cy="50" r="4"></circle>
                <circle id="Oval-Copy-258" cx="303" cy="87" r="4"></circle>
                <circle id="Oval-Copy-245" cx="399" cy="118" r="4"></circle>
                <circle id="Oval-Copy-259" cx="195" cy="58" r="4"></circle>
                <circle id="Oval-Copy-270" cx="249" cy="130" r="4"></circle>
                <circle id="Oval-Copy-235" cx="373" cy="220" r="4"></circle>
                <circle id="Oval-Copy-260" cx="177" cy="178" r="4"></circle>
                <circle id="Oval-Copy-265" cx="4" cy="208" r="4"></circle>
                <circle id="Oval-Copy-264" cx="72" cy="228" r="4"></circle>
                <circle id="Oval-Copy-246" cx="243" cy="221" r="4"></circle>
                <circle id="Oval-Copy-282" cx="20" cy="146" r="4"></circle>
                <circle id="Oval-Copy-261" cx="46" cy="158" r="4"></circle>
                <circle id="Oval-Copy-239" cx="456" cy="136" r="4"></circle>
                <circle id="Oval-Copy-290" cx="596" cy="38" r="4"></circle>
                <circle id="Oval-Copy-247" cx="369" cy="152" r="4"></circle>
                <circle id="Oval-Copy-263" cx="159" cy="91" r="4"></circle>
                <circle id="Oval-Copy-271" cx="223" cy="170" r="4"></circle>
            </g>
            <g id="Group-11" transform="translate(470.000000, 2953.000000)" stroke="#CBCBCB" stroke-dasharray="4" stroke-linecap="square">
                <line x1="497.5" y1="1.09615385" x2="497" y2="380" id="Line-2-Copy-3"></line>
                <line x1="414.125" y1="1.09615385" x2="413.5" y2="380" id="Line-2-Copy-4"></line>
                <line x1="745.5" y1="1.09615385" x2="745" y2="380" id="Line-2-Copy-10"></line>
                <line x1="330.5" y1="1.09615385" x2="330" y2="380" id="Line-2-Copy-5"></line>
                <line x1="662.5" y1="1.09615385" x2="662" y2="380" id="Line-2-Copy-11"></line>
                <line x1="248.5" y1="1.09615385" x2="248" y2="380" id="Line-2-Copy-6"></line>
                <line x1="579.5" y1="1.09615385" x2="579" y2="380" id="Line-2-Copy-12"></line>
                <line x1="165.5" y1="1.09615385" x2="165" y2="380" id="Line-2-Copy-7"></line>
                <line x1="82.5" y1="1.09615385" x2="82" y2="380" id="Line-2-Copy-8"></line>
                <line x1="829" y1="303.8125" x2="0" y2="303.1875" id="Line-2-Copy-4"></line>
                <line x1="829" y1="226.75" x2="0" y2="226.25" id="Line-2-Copy-5"></line>
                <line x1="829" y1="152.75" x2="0" y2="152.25" id="Line-2-Copy-6"></line>
                <line x1="829" y1="76.75" x2="0" y2="76.25" id="Line-2-Copy-7"></line>
            </g>
        </g>
    </g>
</svg>