<svg width="60" height="61" viewBox="0 0 60 61" fill="none" xmlns="http://www.w3.org/2000/svg">
<circle cx="36" cy="26.5" r="24" fill="#FF9555"/>
<path fill-rule="evenodd" clip-rule="evenodd" d="M41.436 17.6522L39.6438 19.4444C35.4897 15.63 29.9493 13.3015 23.865 13.3015C10.977 13.3015 0.529297 23.7492 0.529297 36.6372C0.529297 49.5251 10.977 59.9729 23.865 59.9729C36.7529 59.9729 47.2007 49.5251 47.2007 36.6372C47.2007 30.553 44.8723 25.0127 41.058 20.8587L42.8486 19.0681C45.243 23.7002 49.0797 22.3652 51.5024 20.5092C52.1895 19.9829 52.1571 18.9625 51.4303 18.4924C48.7442 16.7553 46.0475 17.0158 44.2088 17.7078L47.6302 14.2864C48.0207 13.8959 48.0207 13.2627 47.6302 12.8722C47.2397 12.4817 46.6065 12.4817 46.216 12.8722L42.7832 16.305C43.4799 14.4659 43.7472 11.7611 42.0049 9.06694C41.5348 8.34014 40.5144 8.30783 39.988 8.99493C38.1312 11.4188 36.7958 15.258 41.436 17.6522ZM33.8321 25.2561L38.2282 20.8601C34.4372 17.4069 29.397 15.3015 23.865 15.3015C12.0816 15.3015 2.5293 24.8538 2.5293 36.6372C2.5293 48.4206 12.0816 57.9729 23.865 57.9729C35.6484 57.9729 45.2007 48.4206 45.2007 36.6372C45.2007 31.1053 43.0954 26.0652 39.6424 22.2743L26.2797 35.637H26.75C27.3023 35.637 27.75 36.0847 27.75 36.637C27.75 37.1893 27.3023 37.637 26.75 37.637H24.8679V39.5191C24.8679 40.0714 24.4202 40.5191 23.8679 40.5191C23.3157 40.5191 22.8679 40.0714 22.8679 39.5191V37.637H20.9859C20.4336 37.637 19.9859 37.1893 19.9859 36.637C19.9859 36.0847 20.4336 35.637 20.9859 35.637H22.8679V33.7551C22.8679 33.2028 23.3157 32.7551 23.8679 32.7551C24.4202 32.7551 24.8679 33.2028 24.8679 33.7551V34.2203L28.8128 30.2754C27.4475 29.2136 25.7317 28.5813 23.8682 28.5813C19.4158 28.5813 15.8065 32.1907 15.8065 36.6431C15.8065 41.0954 19.4158 44.7048 23.8682 44.7048C28.3205 44.7048 31.9299 41.0954 31.9299 36.6431C31.9299 35.6213 31.7398 34.6438 31.393 33.7443L36.6285 28.5088C38.1291 30.8578 38.9988 33.6489 38.9988 36.6431C38.9988 44.9995 32.2246 51.7737 23.8682 51.7737C15.5118 51.7737 8.73754 44.9995 8.73754 36.6431C8.73754 28.2866 15.5118 21.5124 23.8682 21.5124C27.6843 21.5124 31.1704 22.9251 33.8321 25.2561Z" fill="#150C06"/>
</svg>
