<svg width="61" height="60" viewBox="0 0 61 60" fill="none" xmlns="http://www.w3.org/2000/svg">
<circle cx="37" cy="26" r="24" fill="#AC84FF"/>
<path fill-rule="evenodd" clip-rule="evenodd" d="M30.2405 9.0477C30.697 9.35846 30.8152 9.9805 30.5045 10.4371L29.6267 11.7266C28.3064 13.6663 28.1914 16.1845 29.3295 18.2365C29.348 18.2698 29.3663 18.3033 29.3843 18.3369C30.5061 15.6917 33.1271 13.8362 36.1814 13.8362H37.5991C38.1514 13.8362 38.5991 14.2839 38.5991 14.8362C38.5991 18.9119 35.295 22.216 31.2193 22.216H30.3602C30.3609 23.6284 29.9977 25.0404 29.2716 26.3064L28.7612 27.1963C28.015 28.4974 27.8899 30.0166 28.3351 31.3733C29.3014 29.3842 31.3411 28.013 33.7011 28.013H35.1188C35.6711 28.013 36.1188 28.4608 36.1188 29.013C36.1188 32.1034 33.7676 34.6446 30.7564 34.9453C31.8771 36.9248 32.0086 39.364 31.0155 41.4955L30.5932 42.4021C30.264 43.1087 30.0279 43.8471 29.8856 44.5994C30.9606 43.5479 32.4318 42.8997 34.0543 42.8997H35.4721C36.0244 42.8997 36.4721 43.3474 36.4721 43.8997C36.4721 47.1925 33.8028 49.8618 30.51 49.8618H30.4207L31.8478 53.4119L34.9817 50.6078C35.9671 49.7262 37.0639 48.9792 38.2434 48.3856L38.2445 48.3722L38.7799 48.1288L40.229 47.4701L40.8874 42.7719C40.1051 42.6222 39.4555 42.2736 38.9982 41.6854C38.3591 40.8631 38.2893 39.8117 38.4081 38.8827C38.646 37.0214 39.7397 34.8672 40.6552 33.4367C40.7432 33.2992 40.8592 33.1905 40.991 33.1133C41.1904 32.1352 41.8048 31.2554 42.734 30.7443L44.274 29.8973C46.0571 28.9166 48.2348 28.9944 49.9434 30.1L50.1407 30.2277C52.0141 31.4399 53.0474 33.602 52.8138 35.8211L52.8035 35.9193C52.6034 37.82 51.5218 39.5163 49.8829 40.4996L48.2458 41.4819L48.4722 44.8786L49.8515 45.2235C51.4111 45.6134 52.877 46.3111 54.1631 47.2756L56.6293 49.1253C57.0711 49.4566 57.1607 50.0834 56.8293 50.5253C56.4979 50.9671 55.8711 51.0566 55.4293 50.7253L52.9631 48.8756C51.8903 48.071 50.6674 47.489 49.3665 47.1637L47.2803 46.6422L46.5736 46.4655L46.5251 45.7386L46.1707 40.4221C46.1552 40.1901 46.2201 39.9713 46.3416 39.793C46.4185 39.2525 46.6653 38.733 47.078 38.3203L48.0947 37.3036C48.3809 37.0174 48.4253 36.5689 48.2008 36.2321C48.0063 35.9404 47.6524 35.7982 47.3101 35.8743L45.7374 36.2237C45.199 36.3434 44.6882 35.9337 44.6882 35.3821C44.6882 34.8379 44.1904 34.4299 43.6569 34.5366L42.1365 34.8406C41.3363 36.1564 40.5587 37.8316 40.3919 39.1363C40.3013 39.8455 40.4156 40.25 40.5773 40.4579C40.709 40.6274 41.0455 40.8843 41.9968 40.857C42.2232 40.8505 42.479 40.8276 42.7669 40.7844C43.3131 40.7024 43.8223 41.0788 43.9042 41.625C43.9861 42.1711 43.6098 42.6803 43.0636 42.7622L43.0045 42.7709L42.9623 42.7769L42.9052 42.7847L42.1334 48.2919L42.0571 48.8361L41.5569 49.0635L40.1692 49.6942C40.1742 50.5726 40.3468 51.5322 40.7609 52.1636C40.9919 52.5158 41.2777 52.7385 41.6534 52.8321C42.0486 52.9305 42.6685 52.9166 43.6072 52.5411C45.6562 51.7215 47.0777 50.8511 48.0135 50.1174C48.9757 49.363 49.3682 48.7981 49.4504 48.6201C49.6818 48.1187 50.276 47.8998 50.7774 48.1312C51.2789 48.3627 51.4977 48.9568 51.2663 49.4582C50.994 50.0482 50.3233 50.8479 49.2475 51.6913C48.1453 52.5556 46.5541 53.5164 44.3499 54.3981C43.162 54.8733 42.0983 55.004 41.17 54.7728C40.2221 54.5367 39.5442 53.9553 39.0885 53.2604C38.5835 52.4904 38.3318 51.5572 38.2286 50.679C37.5497 51.0921 36.9092 51.567 36.3153 52.0983L31.4234 56.4753L32.2954 57.3852C32.6775 57.7839 32.6641 58.4169 32.2653 58.7991C31.8666 59.1812 31.2336 59.1677 30.8514 58.769L25.6829 53.3757C24.356 51.9911 22.5445 51.21 20.6629 51.17C20.9788 52.002 21.2549 52.9834 21.3671 53.9875C21.548 55.6052 21.3215 57.5217 19.8267 58.8296L19.212 59.3676L18.5622 58.8725L11.1191 53.2016C10.6798 52.8669 10.595 52.2394 10.9297 51.8001C11.2644 51.3608 11.8919 51.276 12.3312 51.6107L19.015 56.7031C19.3858 56.051 19.4899 55.1968 19.3795 54.2096C19.2413 52.9729 18.7814 51.73 18.3718 50.9159C18.0083 50.5816 17.7491 50.1567 17.5601 49.7468C17.3339 49.2562 17.1729 48.7095 17.0572 48.1806C16.8956 47.4422 16.8101 46.6818 16.7732 46.05C16.2764 45.8801 15.7737 45.614 15.317 45.2112C14.9028 44.8459 14.8631 44.214 15.2284 43.7998C15.5937 43.3855 16.2256 43.3459 16.6398 43.7111C17.2215 44.2241 18.0123 44.3361 18.5327 44.3159C18.9366 43.6232 19.1444 42.7359 19.2091 41.8072C19.2745 40.8683 19.1872 39.9792 19.0776 39.3897C18.3758 38.8975 17.9764 38.251 17.7502 37.874C17.5244 39.0027 16.833 39.9838 15.846 40.576L15.6236 40.7095L14.3294 39.7851C13.6601 39.307 12.7353 39.4259 12.2087 40.0578C11.7231 40.6406 11.7231 41.4872 12.2087 42.07L13.1425 43.1905L12.9351 44.6427C12.8415 45.2974 12.4736 45.8812 11.9233 46.248L11.8441 46.3008C10.6761 47.0796 9.08789 46.6074 8.53489 45.3171L7.64187 46.5673C7.07808 47.3566 6.22891 47.8952 5.27457 48.0687L5.18672 48.0847C3.77677 48.341 2.34931 47.735 1.55439 46.5427C0.653924 45.192 0.770966 43.4053 1.83994 42.1836L2.50952 41.4183L1.97991 40.3591C1.86081 40.1209 1.71455 39.8973 1.54405 39.6927L1.22655 39.3117C0.504517 38.4452 0.389602 37.224 0.937336 36.2381C1.46215 35.2934 2.4948 34.7472 3.57103 34.845L5.69942 35.0385L5.27904 34.6182C3.61801 32.9571 4.16938 30.1424 6.33435 29.2308C7.64811 28.6777 9.16849 29.0284 10.1072 30.1012L11.0159 31.1398L11.6579 29.5347C12.1265 28.3635 13.2608 27.5954 14.5223 27.5954C15.2345 27.5954 15.9247 27.8418 16.4759 28.2928L17.3972 29.0466C18.7545 30.1571 19.5984 31.7745 19.7329 33.523L19.8768 35.393C20.9851 36.058 21.4436 38.0659 21.0829 39.2494C21.2002 39.9757 21.2746 40.9363 21.2043 41.9463C21.1158 43.216 20.7898 44.6871 19.9082 45.8534L19.6858 46.1475L19.3257 46.2269C19.183 46.2583 19.0034 46.2858 18.7966 46.3016C18.8363 46.7585 18.9043 47.2659 19.0109 47.7531C19.1078 48.1959 19.2304 48.5929 19.3763 48.9094C19.4341 49.0347 19.4908 49.1369 19.5442 49.2195C22.3541 48.9213 25.1577 49.9371 27.1268 51.9919L30.0388 55.0304L30.2624 54.8304L28.5386 50.5418C27.5367 48.0495 27.4608 45.2961 28.2974 42.773H28.0301C24.7374 42.773 22.068 40.1036 22.068 36.8109C22.068 36.2586 22.5158 35.8109 23.068 35.8109H24.4858C26.7089 35.8109 28.6478 37.0276 29.6729 38.8315C29.7744 37.3711 29.2513 35.9017 28.1742 34.8247C28.1392 34.7897 28.1046 34.7544 28.0705 34.7188C28.028 34.6806 27.9888 34.6387 27.9533 34.5938C26.1047 32.5737 25.5856 29.6915 26.5599 27.1782H25.5486C21.4729 27.1782 18.1688 23.8742 18.1688 19.7984C18.1688 19.2461 18.6165 18.7984 19.1688 18.7984H20.5865C24.1702 18.7984 27.1573 21.3528 27.8263 24.7402C28.6118 22.9708 28.5313 20.9208 27.5805 19.2065C26.0761 16.494 26.228 13.1653 27.9734 10.6012L28.8511 9.31168C29.1619 8.85512 29.7839 8.73693 30.2405 9.0477ZM34.3421 44.9102C34.343 44.9067 34.3439 44.9032 34.3448 44.8997H34.0543C32.2147 44.8997 30.6679 46.1535 30.2218 47.8532L34.3421 44.9102ZM33.989 30.0227L33.9915 30.013H33.7011C31.8617 30.013 30.315 31.2665 29.8687 32.9658L33.989 30.0227ZM36.5045 15.8458L36.5063 15.8362H36.1814C33.5547 15.8362 31.3676 17.7187 30.8958 20.2081L36.5045 15.8458ZM20.2631 20.8062L25.8718 25.1686C25.3992 22.68 23.2126 20.7984 20.5865 20.7984H20.2616L20.2631 20.8062ZM24.1979 37.8206L28.3181 40.7636C27.8718 39.0643 26.3252 37.8109 24.4858 37.8109H24.1953L24.1979 37.8206ZM14.0479 44.6913C14.5894 44.7996 14.9406 45.3265 14.8323 45.868L14.1235 49.4123L14.0072 49.9938L13.4411 50.1707L12.0134 50.6169C9.28989 51.468 6.70188 52.7036 4.32772 54.2864L2.71013 55.3648C2.2506 55.6711 1.62973 55.547 1.32338 55.0874C1.01703 54.6279 1.1412 54.007 1.60073 53.7007L3.21832 52.6223C5.75091 50.9339 8.51161 49.6158 11.4168 48.7079L12.2786 48.4386L12.8712 45.4758C12.9795 44.9342 13.5063 44.583 14.0479 44.6913Z" fill="#150C06"/>
</svg>
