<svg width="61" height="60" viewBox="0 0 61 60" fill="none" xmlns="http://www.w3.org/2000/svg">
<circle cx="37" cy="26" r="24" fill="#FFA39F"/>
<path fill-rule="evenodd" clip-rule="evenodd" d="M0.841345 15.9298C0.0892292 14.373 1.22344 12.5654 2.9524 12.5654H10.633C11.5325 12.5654 12.3527 13.0801 12.744 13.89L19.8014 28.4981L27.0365 13.8705C27.4318 13.0712 28.2463 12.5654 29.138 12.5654H37.0589C38.7974 12.5654 39.9312 14.3911 39.1604 15.9494L26.7468 41.0467C29.0331 42.9685 30.4862 45.8495 30.4862 49.07C30.4862 54.8559 25.7957 59.5464 20.0097 59.5464C14.2237 59.5464 9.53326 54.8559 9.53326 49.07C9.53326 45.949 10.8979 43.1468 13.0631 41.2276L0.841345 15.9298ZM14.707 40.0327C16.2624 39.118 18.0748 38.5935 20.0097 38.5935C20.9092 38.5935 21.7822 38.7069 22.6153 38.9201L10.9432 14.7601C10.8857 14.6411 10.7651 14.5654 10.633 14.5654H2.9524C2.69834 14.5654 2.53168 14.831 2.6422 15.0598L14.707 40.0327ZM21.6303 29.3116L26.8198 36.3881L37.3677 15.0627C37.481 14.8337 37.3144 14.5654 37.0589 14.5654H29.138C29.007 14.5654 28.8873 14.6398 28.8292 14.7572L21.6303 29.3116ZM22.3353 43.2501H17.6791V46.7418H14.1902V51.398H17.6791V54.8906H22.3353V51.398H25.8307V46.7418H22.3353V43.2501ZM28.4862 49.07C28.4862 53.7514 24.6911 57.5464 20.0097 57.5464C15.3283 57.5464 11.5333 53.7514 11.5333 49.07C11.5333 44.3885 15.3283 40.5935 20.0097 40.5935C24.6911 40.5935 28.4862 44.3885 28.4862 49.07Z" fill="#150C06"/>
</svg>
